<?xml version="1.0" encoding="utf-8"?>
<svg version="1.1" id="Layer_1" xmlns="http://www.w3.org/2000/svg" xmlns:xlink="http://www.w3.org/1999/xlink" x="0px" y="0px"
	 viewBox="0 0 512 512" style="enable-background:new 0 0 512 512;" xml:space="preserve">
<style type="text/css">
	.st0{opacity:0.2;fill:#e05d44;enable-background:new;}
	.st1{fill:#e05d44;}
</style>
<circle class="st0" cx="256" cy="256" r="232.7"/>
<path class="st1" d="M256,0C114.8,0,0,114.8,0,256s114.8,256,256,256s256-114.8,256-256S397.2,0,256,0z M256,465.6
	c-115.5,0-209.5-94-209.5-209.5S140.5,46.6,256,46.6s209.5,93.9,209.5,209.5C465.5,371.6,371.5,465.6,256,465.6z"/>
<g transform="translate(105.49, 138.46) scale(0.6)">
  <g transform="translate(-156.33871,933.1905)">
    <path id="path3336-6" class="st1" d="m 309.54892,-710.38827 122.19683,211.67512 -56.15706,0.5268 -32.6236,-56.8692 -32.85645,56.5653 -27.90237,-0.011 -14.29086,-24.6896 46.81047,-80.4901 -33.22946,-57.8257 z" />
    <use transform="rotate(60,407.11155,-715.78724)" xlink:href="#path3336-6" />
    <use transform="rotate(-60,407.31177,-715.70016)" xlink:href="#path3336-6" />
    <use transform="rotate(180,407.41868,-715.7565)" xlink:href="#path3336-6" />
    <use transform="rotate(120,407.33916,-716.08356)" xlink:href="#path3336-6" />
    <use transform="rotate(-120,407.28823,-715.86995)" xlink:href="#path3336-6" />
  </g>
</g>
</svg>
